 <svg  version="1.0" xmlns="http://www.w3.org/2000/svg"  width="300.000000pt" height="300.000000pt" viewBox="0 0 300.000000 300.000000"  preserveAspectRatio="xMidYMid meet">  <g transform="translate(0.000000,300.000000) scale(0.100000,-0.100000)" fill="#ad9988" stroke="none"> <path d="M1466 2603 c-14 -28 -37 -47 -181 -153 -79 -58 -111 -93 -145 -160 -45 -90 -50 -136 -50 -484 l0 -324 24 -4 25 -5 3 351 c3 337 4 353 26 407 31 77 75 125 196 213 58 42 106 82 109 89 2 7 20 -3 48 -29 24 -22 71 -58 104 -81 122 -83 176 -164 195 -290 5 -37 10 -201 10 -364 l0 -296 26 5 26 5 -4 341 c-5 381 -7 395 -76 502 -30 45 -63 77 -133 129 -112 81 -146 110 -169 149 l-18 28 -16 -29z"/> <path d="M1419 2383 c-3 -59 2 -229 7 -246 12 -39 26 -1 24 62 -4 106 -3 116 16 100 14 -12 14 -9 -1 26 -9 22 -21 50 -26 63 -12 30 -19 28 -20 -5z"/> <path d="M1521 2392 c-7 -13 -10 -35 -6 -49 3 -14 8 -53 11 -87 3 -33 10 -97 15 -141 5 -44 9 -87 9 -97 0 -27 -17 -22 -24 7 -4 14 -18 31 -32 37 -24 11 -29 9 -50 -15 -26 -30 -31 -76 -12 -95 7 -7 30 -12 51 -12 34 0 38 -2 27 -15 -24 -29 -102 -74 -141 -80 -52 -9 -119 23 -144 69 -23 42 -16 113 14 152 24 31 28 52 6 34 -20 -17 -29 8 -21 58 5 27 4 33 -4 22 -6 -8 -10 -42 -9 -75 0 -33 -5 -81 -12 -106 -17 -67 -5 -115 41 -161 36 -36 50 -41 113 -40 72 2 159 61 173 118 4 16 14 37 23 48 18 21 22 139 8 265 -6 51 -5 71 2 66 15 -9 13 11 -8 70 -17 48 -18 49 -30 27z m-26 -405 c-18 -10 -45 -3 -45 12 0 14 33 19 48 7 11 -8 10 -11 -3 -19z"/> <path d="M1605 2336 c-5 -16 -3 -97 4 -180 6 -83 11 -165 11 -183 0 -39 -42 -91 -104 -127 -45 -26 -101 -84 -91 -94 2 -3 13 2 23 11 10 10 23 17 28 17 22 0 116 74 140 110 25 37 26 44 25 185 -1 81 -3 151 -7 156 -3 5 0 9 5 9 16 0 60 -74 87 -147 28 -75 41 -172 26 -198 -8 -16 -11 -13 -23 18 -26 72 -40 39 -28 -64 4 -41 8 -104 9 -141 0 -58 -3 -69 -20 -78 -32 -17 -43 -2 -20 27 18 23 19 28 6 41 -8 8 -37 17 -64 20 -41 4 -53 1 -71 -17 -24 -24 -31 -26 -31 -8 0 16 -32 47 -48 47 -39 0 -60 -93 -23 -105 10 -3 26 -3 35 1 10 4 16 1 16 -9 0 -32 -192 -157 -242 -157 -19 0 -20 -2 -8 -10 27 -17 74 -10 125 19 54 31 145 121 145 144 0 28 28 41 58 28 l27 -13 -37 -19 c-69 -36 -101 -127 -57 -168 64 -60 204 -8 250 93 20 43 24 135 10 231 -5 35 -2 61 8 85 8 20 14 67 14 110 0 91 -24 161 -84 240 -23 30 -52 77 -65 105 l-22 50 -7 -29z m132 -503 c-4 -3 -7 0 -7 7 0 7 3 10 7 7 3 -4 3 -10 0 -14z m11 -210 c-3 -53 -9 -68 -33 -94 -35 -37 -98 -68 -137 -69 -15 0 -39 10 -54 23 -41 35 -28 70 37 103 37 18 55 22 62 15 17 -17 62 -13 82 9 11 12 19 42 23 87 6 67 6 68 14 28 5 -22 8 -68 6 -102z m-260 59 c4 -14 -34 -16 -42 -3 -6 10 13 21 28 17 6 -1 12 -8 14 -14z m162 -11 c0 -16 -28 -20 -40 -5 -10 12 -8 14 14 14 14 0 26 -4 26 -9z"/> <path d="M1585 1545 c-3 -8 -7 -22 -10 -30 -5 -18 -1 -18 45 1 l35 14 -30 -3 c-23 -1 -30 2 -29 16 2 21 -5 22 -11 2z"/> <path d="M1351 2324 c0 -11 3 -14 6 -6 3 7 2 16 -1 19 -3 4 -6 -2 -5 -13z"/> <path d="M1370 2301 c0 -7 -4 -9 -10 -6 -5 3 -10 -1 -10 -9 0 -9 4 -16 9 -16 11 0 24 31 16 38 -3 3 -5 0 -5 -7z"/> <path d="M1263 2258 c-15 -20 -25 -38 -20 -38 3 0 12 11 21 25 17 26 16 35 -1 13z"/> <path d="M1330 2187 c0 -7 9 -20 19 -29 16 -14 20 -14 25 -2 3 8 3 21 0 29 -7 18 -44 20 -44 2z"/> <path d="M1491 2157 c-7 -9 -52 -43 -100 -76 -89 -60 -111 -89 -111 -141 0 -50 75 -67 99 -22 8 15 4 17 -37 17 -69 0 -67 24 4 71 77 51 168 137 163 153 -4 10 -8 10 -18 -2z"/> <path d="M1344 2118 c-4 -7 -3 -8 4 -4 12 7 16 16 8 16 -3 0 -8 -5 -12 -12z"/> <path d="M1316 2085 c-11 -8 -15 -15 -9 -15 6 0 16 7 23 15 16 19 11 19 -14 0z"/> <path d="M1680 2090 c0 -7 3 -10 7 -7 3 4 3 10 0 14 -4 3 -7 0 -7 -7z"/> <path d="M1671 2056 c5 -26 25 -31 33 -9 4 9 4 14 0 10 -4 -4 -14 -1 -22 5 -12 10 -14 9 -11 -6z"/> <path d="M1641 1847 c-1 -29 18 -34 27 -7 3 7 0 10 -6 6 -6 -3 -13 2 -15 11 -3 11 -5 7 -6 -10z"/> <path d="M1199 1810 c-3 -19 -3 -48 2 -63 5 -16 4 -40 -2 -55 -14 -36 -13 -115 0 -141 27 -49 98 -51 145 -4 40 39 33 84 -14 99 -23 8 -35 18 -35 30 0 15 8 19 38 19 32 0 37 3 37 22 0 12 -8 27 -19 32 -36 20 -88 -53 -79 -110 2 -18 13 -26 42 -34 l40 -11 -24 -17 c-25 -17 -76 -22 -96 -9 -37 24 -43 89 -14 147 24 47 25 56 6 49 -11 -4 -16 5 -18 38 l-3 43 -6 -35z"/> <path d="M1565 1775 l-30 -14 30 6 c17 3 39 10 50 14 20 8 20 8 0 8 -11 0 -33 -6 -50 -14z"/> <path d="M1513 1753 c4 -3 10 -3 14 0 3 4 0 7 -7 7 -7 0 -10 -3 -7 -7z"/> <path d="M1431 1463 c-1 -32 11 -44 24 -23 3 6 2 10 -4 10 -5 0 -12 10 -14 23 -3 16 -5 13 -6 -10z"/> <path d="M923 1443 c-40 -4 -42 -5 -33 -29 11 -28 -8 -84 -39 -119 -36 -40 -33 -42 27 -32 84 13 313 1 398 -21 70 -19 184 -66 184 -76 0 -3 -21 2 -47 10 -132 41 -196 49 -383 49 -197 -1 -254 -10 -286 -46 l-19 -22 35 7 c120 23 283 27 455 11 135 -13 163 -18 201 -36 49 -23 92 -24 121 -4 24 17 176 40 328 49 90 6 250 -4 345 -20 l35 -6 -22 22 c-61 64 -433 67 -641 5 -68 -20 -76 -14 -19 13 107 50 201 66 393 67 l180 0 -30 43 c-23 32 -31 55 -31 87 l0 43 -54 5 c-55 6 -190 -6 -268 -23 -95 -22 -195 -86 -242 -156 l-29 -44 -21 34 c-29 47 -91 100 -148 130 -80 40 -276 70 -390 59z m241 -58 c101 -18 192 -62 245 -120 22 -24 41 -49 41 -54 0 -6 -33 5 -72 24 -113 53 -224 78 -355 79 -62 1 -113 3 -113 6 1 3 7 14 15 24 8 11 15 28 15 38 0 16 9 18 73 18 39 -1 108 -7 151 -15z m866 0 c0 -9 6 -28 14 -43 l14 -27 -122 -1 c-133 -2 -240 -26 -364 -84 l-63 -29 18 30 c57 98 228 166 426 168 63 1 77 -2 77 -14z"/> <path d="M2347 1060 c-4 -16 0 -20 21 -19 17 1 21 3 10 6 -21 5 -23 19 -5 26 7 4 6 6 -4 6 -9 1 -19 -8 -22 -19z"/> <path d="M600 1035 c0 -8 7 -15 15 -15 8 0 15 7 15 15 0 8 -7 15 -15 15 -8 0 -15 -7 -15 -15z"/> <path d="M650 1035 c0 -8 9 -15 20 -15 11 0 20 7 20 15 0 8 -9 15 -20 15 -11 0 -20 -7 -20 -15z"/> <path d="M1847 1013 c-11 -10 -8 -128 3 -157 l10 -26 226 0 227 0 -6 36 c-9 54 -32 82 -72 90 -35 6 -35 7 -20 30 19 30 19 34 -4 34 -13 0 -29 -16 -45 -42 l-26 -43 48 -7 c46 -7 89 -39 76 -59 -8 -14 -358 -11 -372 3 -7 7 -12 40 -12 80 0 50 -4 68 -13 68 -8 0 -17 -3 -20 -7z"/> <path d="M2340 925 c0 -88 1 -95 20 -95 19 0 20 7 20 95 0 88 -1 95 -20 95 -19 0 -20 -7 -20 -95z"/> <path d="M593 984 c-7 -3 -17 -21 -23 -39 -9 -27 -8 -41 2 -62 11 -24 20 -28 53 -28 22 0 46 -5 53 -12 10 -10 93 -13 362 -13 313 0 351 -2 379 -17 30 -17 32 -17 62 0 17 9 51 17 78 17 26 0 52 5 59 12 7 7 12 36 12 65 0 46 -3 53 -19 53 -17 0 -20 -8 -23 -47 -3 -45 -5 -48 -33 -51 -27 -3 -33 2 -45 30 -14 30 -19 33 -60 33 -41 0 -46 -3 -60 -32 l-15 -33 -270 3 -270 2 3 48 c3 42 2 47 -17 47 -18 0 -21 -6 -21 -38 0 -45 -14 -62 -50 -62 -38 0 -50 18 -50 77 l0 53 -47 -1 c-27 0 -53 -3 -60 -5z m65 -61 c-2 -30 -7 -39 -25 -41 -17 -3 -24 3 -29 22 -7 31 10 56 38 56 16 0 19 -6 16 -37z m820 -49 c4 -29 -23 -51 -43 -34 -16 13 -20 42 -8 54 14 14 48 1 51 -20z"/> <path d="M1700 949 c0 -8 15 -21 33 -29 20 -9 33 -24 35 -37 3 -22 0 -23 -52 -23 -43 0 -56 -3 -56 -15 0 -12 15 -15 75 -15 l75 0 0 34 c0 22 -8 45 -22 60 -26 30 -88 47 -88 25z"/> <path d="M740 795 c0 -8 9 -15 20 -15 11 0 20 7 20 15 0 8 -9 15 -20 15 -11 0 -20 -7 -20 -15z"/> <path d="M800 795 c0 -8 7 -15 15 -15 8 0 15 7 15 15 0 8 -7 15 -15 15 -8 0 -15 -7 -15 -15z"/> <path d="M1540 795 c0 -8 7 -15 15 -15 8 0 15 7 15 15 0 8 -7 15 -15 15 -8 0 -15 -7 -15 -15z"/> <path d="M1600 795 c0 -8 7 -15 15 -15 8 0 15 7 15 15 0 8 -7 15 -15 15 -8 0 -15 -7 -15 -15z"/> <path d="M1470 608 c0 -87 -6 -98 -51 -98 -29 0 -39 4 -39 16 0 25 -56 74 -84 74 -36 0 -32 -22 7 -40 17 -8 33 -23 35 -32 3 -14 -6 -17 -50 -20 -41 -2 -54 -7 -56 -20 -3 -16 8 -18 117 -18 150 0 151 1 151 111 0 64 -3 79 -15 79 -11 0 -15 -13 -15 -52z"/> <path d="M1540 565 c0 -78 3 -95 15 -95 12 0 15 17 15 95 0 78 -3 95 -15 95 -12 0 -15 -17 -15 -95z"/> <path d="M2328 588 l-3 -73 -36 -3 c-33 -3 -37 0 -42 26 -8 39 -32 62 -66 62 -35 0 -61 -28 -61 -67 0 -37 27 -63 66 -63 26 -1 27 -2 12 -14 -10 -7 -18 -18 -18 -25 0 -19 30 -12 54 14 17 19 34 25 63 25 21 0 44 5 51 12 7 7 12 44 12 95 0 66 -3 83 -15 83 -11 0 -15 -17 -17 -72z m-130 -30 c22 -22 14 -48 -13 -48 -20 0 -25 5 -25 23 0 36 16 47 38 25z"/> <path d="M2400 565 c0 -88 1 -95 20 -95 19 0 20 7 20 95 0 88 -1 95 -20 95 -19 0 -20 -7 -20 -95z"/> <path d="M691 584 c-33 -42 -28 -64 14 -64 28 0 35 -4 35 -19 0 -26 -23 -42 -59 -43 -40 -1 -71 27 -71 64 0 21 -5 28 -20 28 -15 0 -20 -7 -20 -25 0 -82 84 -129 160 -90 35 18 50 43 50 84 0 28 -3 31 -30 31 -36 0 -40 17 -5 26 35 9 32 34 -4 34 -20 0 -36 -9 -50 -26z"/> <path d="M1130 602 c-29 -9 -50 -36 -50 -64 l0 -28 -70 0 -70 0 0 28 c0 55 -68 83 -103 44 -22 -25 -21 -75 1 -95 10 -10 32 -17 48 -17 26 -1 27 -2 12 -14 -20 -15 -24 -36 -7 -36 20 0 49 21 49 35 0 12 22 15 130 15 123 0 130 1 130 20 0 17 -7 20 -40 20 -38 0 -40 1 -40 31 0 30 1 31 34 25 36 -7 55 5 33 21 -18 15 -40 21 -57 15z m-232 -44 c21 -21 14 -48 -12 -48 -28 0 -42 26 -25 46 14 17 22 17 37 2z"/> <path d="M1976 578 c-9 -12 -16 -33 -16 -45 0 -34 -58 -32 -88 2 -24 27 -72 35 -72 11 0 -8 7 -16 15 -20 19 -7 19 -40 1 -55 -8 -7 -29 -13 -47 -13 -37 -1 -69 30 -69 68 0 18 -6 24 -21 24 -19 0 -21 -4 -16 -37 10 -58 47 -88 108 -88 42 0 55 4 72 25 21 24 25 25 130 22 103 -4 107 -3 107 17 0 18 -6 21 -41 21 -38 0 -40 1 -37 28 2 22 8 27 28 25 41 -3 54 5 40 22 -19 23 -76 19 -94 -7z"/> <path d="M630 375 c0 -8 9 -15 20 -15 11 0 20 7 20 15 0 8 -9 15 -20 15 -11 0 -20 -7 -20 -15z"/> <path d="M690 375 c0 -8 7 -15 15 -15 8 0 15 7 15 15 0 8 -7 15 -15 15 -8 0 -15 -7 -15 -15z"/> <path d="M1730 375 c0 -8 7 -15 15 -15 8 0 15 7 15 15 0 8 -7 15 -15 15 -8 0 -15 -7 -15 -15z"/> <path d="M1780 375 c0 -8 9 -15 20 -15 11 0 20 7 20 15 0 8 -9 15 -20 15 -11 0 -20 -7 -20 -15z"/> </g> </svg> 